<svg id="Camada_1" data-name="Camada 1" xmlns="http://www.w3.org/2000/svg" viewBox="0 0 551.24 114.47"><defs><style>.cls-1{fill:#f2f2f2;fill-rule:evenodd;}</style></defs><path class="cls-1" d="M73.21,420.6a50.64,50.64,0,0,0,43,24.18c26.62,0,41.27-23,41.27-23h0l1.89,6.12h0c-12.33,16-34.34,25.68-59,25.68-28.36,0-52.82-13.52-64.07-33a48.17,48.17,0,0,1-6.6-24.2c0-31.61,31.63-57.24,70.67-57.24,27.58,0,49.78,11.82,61.44,28.93h0l-46.28,27.72L142,355.23h0c-7.55-4.75-16.82-9.2-26.41-9.2-27.09,0-49.41,22.61-49.41,49.7a47.49,47.49,0,0,0,7,24.87Z" transform="translate(-29.76 -339.14)"/><path class="cls-1" d="M197.12,420.59a18.32,18.32,0,0,0-.21,2.79,18.62,18.62,0,0,0,37.24,0,20,20,0,0,0-.2-2.8,18.63,18.63,0,0,0-36.83,0Zm69.1,0,9.25,31.17H243l-6.39-21.35h0c-4.27,12.31-18.7,21.35-35.83,21.35-20.51,0-37.13-12.95-37.13-28.92,0-.75,0-1.5.11-2.25,1.46-14.92,17.47-26.68,37-26.68,11.09,0,21,3.79,27.85,9.8h0l-8.85-29.57H182.53s6.2-3.72,33.69-13.72,36.21,13.72,36.21,13.72h0l13.79,46.45Z" transform="translate(-29.76 -339.14)"/><path class="cls-1" d="M370,420.58v31.17H336.61V383.26h0A9.13,9.13,0,0,0,319,379.94h0v71.81H286.2V374.13H267.07S293.67,358,302.9,358c8.74,0,15.21,6.72,16,15.28,12.87-6.94,25.62-15.28,34.4-15.28A16.71,16.71,0,0,1,370,374.25h0v46.33Z" transform="translate(-29.76 -339.14)"/><path class="cls-1" d="M421.49,420.58l4.64,15.36h0a12.08,12.08,0,0,0,12.15,11.86,12.3,12.3,0,0,0,12.29-12.3,11.16,11.16,0,0,0-.08-1.42h0l-3.95-13.5-13.88-47.44h0a12.29,12.29,0,0,0-12.22-10.92c-6.26,0-12.24,5.85-13,11.91h0l14.05,46.45Zm53.16,0a48.15,48.15,0,1,1,2.41-15.08,48.13,48.13,0,0,1-2.41,15.08Z" transform="translate(-29.76 -339.14)"/><path class="cls-1" d="M530,420.58v31.17H497.17V374.13H478.84s25.81-16.12,35-16.12c8.74,0,15.21,6.72,16,15.28,12.87-6.94,25.62-15.28,34.4-15.28A16.71,16.71,0,0,1,581,374.25h0v77.5H547.59V383.26h0A9.13,9.13,0,0,0,530,379.94h0v40.64Z" transform="translate(-29.76 -339.14)"/></svg>