<svg id="Camada_1" data-name="Camada 1" xmlns="http://www.w3.org/2000/svg" viewBox="0 0 495.07 125.62"><defs><style>.cls-1{fill:#f2f2f2;fill-rule:evenodd;}</style></defs><path class="cls-1" d="M435.08,394.47c-3.42-8.74-11.68-15.47-20.51-17.66-24.2-6.45-54.85-3.89-71.56,16.33-9.68,12.43-15.37,31.13-8.16,46.88,3.51,9.21,13.29,15.85,22.5,17.56,20.31,2.66,46.5,3.8,62.83-11.1,15.28-12.72,20.4-34,14.9-52ZM385,431.86c-2.28.85-6,1.23-8.07-.38-4.84-2.66-3.23-8.64-2.66-12.62,2.28-7.41,4.84-17.85,14.05-19.27,3-.3,6.83,1,8.07,4.56.85,10.72-2.23,21.63-11.39,27.71Z" transform="translate(-57.84 -333.57)"/><polygon class="cls-1" points="106.96 0 89.87 49.55 76.89 0 42.37 0 0 120.97 40.32 120.97 56.38 74.83 68.34 120.97 104.91 120.97 147.28 0 106.96 0 106.96 0 106.96 0"/><path class="cls-1" d="M231.66,369.66c7.12-1,14.62-3.32,18.51-10.34C253,353.72,252,347,248.56,342c-5.51-5.79-13.1-6.36-21.17-5.88-7.4,1-14.9,4.74-17.55,12.43-1.24,4.84-1,10.73,2.27,14.62,4.75,5.79,12.44,6.64,19.55,6.45Z" transform="translate(-57.84 -333.57)"/><polygon class="cls-1" points="144.45 44.19 117.45 121.08 155.72 121.08 182.72 44.19 144.45 44.19 144.45 44.19 144.45 44.19"/><polygon class="cls-1" points="292.47 44.08 248.05 44.08 225.84 70.05 250.1 0 211.14 0 168.77 120.97 207.73 120.97 218.66 90.55 224.81 120.97 265.48 120.97 258.64 84.06 292.47 44.08 292.47 44.08 292.47 44.08"/><path class="cls-1" d="M525.24,376.74a50.87,50.87,0,0,0-34.18,12.64h0l4.45-11.62H455.18l-27,76.89h40.32l13-36.91h0c2.05-5.81,5.46-8.54,11.27-8.54s7.18,5.81,5.47,10.59h0l-12.3,34.86h38.95l17.43-49.89h0c4.79-13.67,0-28-17.08-28Z" transform="translate(-57.84 -333.57)"/><path class="cls-1" d="M544.89,438.54a8,8,0,1,0,8,8,8,8,0,0,0-8-8Zm0,15.12a7.08,7.08,0,1,1,7.06-7.1,7.07,7.07,0,0,1-7.06,7.1Z" transform="translate(-57.84 -333.57)"/><path class="cls-1" d="M549,444.46a2.19,2.19,0,0,0-1-1.94,4.13,4.13,0,0,0-2.19-.44h-3.91v9H543v-4.15h2l2.57,4.15h1.31l-2.72-4.15h0c1.6,0,2.84-.69,2.84-2.46Zm-4.34,1.59H543v-3.18h2.57c1.11,0,2.34.17,2.34,1.56,0,1.83-2,1.62-3.23,1.62Z" transform="translate(-57.84 -333.57)"/></svg>