<svg xmlns="http://www.w3.org/2000/svg" viewBox="0 0 589.95 505.69"><defs><style>.cls-1{fill:#3d3e40;}.cls-2{fill:#fff;}.cls-3{fill:#727273;}</style></defs><g id="Object"><path class="cls-1" d="M539,300a16.6,16.6,0,0,0-11.65-4.81H387.4a16.46,16.46,0,0,0-16.47,16.46V569.88H311.48a16.45,16.45,0,0,0-13.24,26.23L443.67,793.22a16.46,16.46,0,0,0,26.46,0l61-82.12a177.85,177.85,0,0,0,103.2-5.41v77.73a17.4,17.4,0,0,0,17.41,17.4H791.65a17.38,17.38,0,0,0,17.41-17.4V545.66h58.52a17.41,17.41,0,0,0,14-27.74L736.16,320.82a17.42,17.42,0,0,0-28,0l-46.53,62.68a177,177,0,0,0-117.84-20.7V311.62A16.6,16.6,0,0,0,539,300ZM733,538.26c0,87.78-71.43,159.2-159.22,159.2S414.56,626,414.56,538.26,486,379,573.79,379,733,450.46,733,538.26Z" transform="translate(-295.02 -295.16)"/><path class="cls-2" d="M411.54,544.79C411.54,632.58,483,704,570.74,704S730,632.58,730,544.79,658.54,385.56,570.74,385.56,411.54,457,411.54,544.79Zm283.31,0A122.41,122.41,0,1,1,572.44,422.37,122.41,122.41,0,0,1,694.85,544.79Z" transform="translate(-295.02 -295.16)"/><path class="cls-2" d="M568.12,638.18h14a7.63,7.63,0,0,0,7.63-7.64v-13c11.22-1.67,21-5.18,29.28-10.61q19.59-13,20.08-35.72.27-14.21-7.9-24.13-13.29-15.85-41.46-19.81V500.87a41.17,41.17,0,0,1,9.56,6.29,9.94,9.94,0,0,0,6.55,2.37,13.16,13.16,0,0,0,4.77-1.39l.05,0,15.7-9.85a6.18,6.18,0,0,0,3.28-5.19,5.76,5.76,0,0,0-2-4.44q-14.68-16.72-37.86-20.74V453.05a7.64,7.64,0,0,0-7.63-7.65h-14a7.66,7.66,0,0,0-7.65,7.65v14.46A70,70,0,0,0,540.83,473q-28.27,12.87-27.77,38.48a37.1,37.1,0,0,0,7.55,22.27q12.3,16.47,39.86,20.7v32.94q-11.9-4.21-22.52-15.7a7.4,7.4,0,0,0-6.19-3,15.41,15.41,0,0,0-4.19,1.21l-.05,0-14.28,8.38c-2.45,1.42-3.62,3.3-3.6,5.61a6.19,6.19,0,0,0,1.67,4.07,70.92,70.92,0,0,0,15,14.91,74.39,74.39,0,0,0,34.19,14.64v13A7.65,7.65,0,0,0,568.12,638.18ZM589.77,558c7.57,2.38,11.41,6.78,11.36,13.27-.07,6-2.81,10.71-8.27,14a25.76,25.76,0,0,1-3.09,1.61Zm-38.54-46.41c0-4.72,2.68-8.4,8.17-11l1.07-.43v23.4Q551.32,520,551.23,511.59Z" transform="translate(-295.02 -295.16)"/><path class="cls-3" d="M551.23,511.59q.07,8.43,9.24,12v-23.4l-1.07.43C553.91,503.19,551.2,506.87,551.23,511.59Z" transform="translate(-295.02 -295.16)"/><path class="cls-3" d="M589.77,586.9a25.76,25.76,0,0,0,3.09-1.61c5.46-3.31,8.2-8,8.27-14,0-6.49-3.79-10.89-11.36-13.27Z" transform="translate(-295.02 -295.16)"/><path class="cls-3" d="M450,544.79a122.41,122.41,0,1,0,122.4-122.42A122.42,122.42,0,0,0,450,544.79Zm139.73-91.74V467.9q23.15,4,37.86,20.74a5.76,5.76,0,0,1,2,4.44,6.18,6.18,0,0,1-3.28,5.19l-15.7,9.85-.05,0a13.16,13.16,0,0,1-4.77,1.39,9.94,9.94,0,0,1-6.55-2.37,41.17,41.17,0,0,0-9.56-6.29v26.38q28.18,3.94,41.46,19.81,8.19,9.91,7.9,24.13-.45,22.78-20.08,35.72c-8.29,5.43-18.06,8.94-29.28,10.61v13a7.63,7.63,0,0,1-7.63,7.64h-14a7.65,7.65,0,0,1-7.65-7.64v-13a74.39,74.39,0,0,1-34.19-14.64,70.92,70.92,0,0,1-15-14.91,6.19,6.19,0,0,1-1.67-4.07c0-2.31,1.15-4.19,3.6-5.61l14.28-8.38.05,0a15.41,15.41,0,0,1,4.19-1.21,7.4,7.4,0,0,1,6.19,3q10.6,11.49,22.52,15.7V554.47q-27.57-4.25-39.86-20.7a37.1,37.1,0,0,1-7.55-22.27q-.46-25.56,27.77-38.48a70,70,0,0,1,19.64-5.51V453.05a7.66,7.66,0,0,1,7.65-7.65h14A7.64,7.64,0,0,1,589.77,453.05Z" transform="translate(-295.02 -295.16)"/></g></svg>