<svg id="Camada_1" data-name="Camada 1" xmlns="http://www.w3.org/2000/svg" viewBox="0 0 511.33 89.17"><defs><style>.cls-1{fill:#f2f2f2;fill-rule:evenodd;}</style></defs><path class="cls-1" d="M553.23,423.83a7.8,7.8,0,1,0,7.77,7.78,7.8,7.8,0,0,0-7.77-7.78Zm0,14.65a6.86,6.86,0,1,1,6.83-6.87,6.85,6.85,0,0,1-6.83,6.87Z" transform="translate(-49.67 -351.82)"/><path class="cls-1" d="M557.23,429.57a2.14,2.14,0,0,0-1-1.88,4,4,0,0,0-2.12-.43h-3.8V436h1.06v-4h2l2.49,4h1.26l-2.63-4h0c1.55,0,2.76-.67,2.76-2.38ZM553,431.12h-1.63V428h2.49c1.08,0,2.26.16,2.26,1.5,0,1.78-1.89,1.58-3.12,1.58Z" transform="translate(-49.67 -351.82)"/><path class="cls-1" d="M507.54,387.45l15.94-17h0a5.42,5.42,0,0,0,1.38-2.87c0-1.25-1.07-1.75-4.45-1.75h-4V355.08h43.52v10.74h-5.72c-6.61,0-7.84,1-17.05,12.61h0l-25.21,27.22v16.62h0c0,4.24,2.15,5.74,8.3,5.74h9.51v10.36H468.79V428h9.52c6.14,0,8.29-1.5,8.29-5.74h0V405.65l-29.69-32.84h0c-4.91-5.74-4.23-7-17.89-7h0V355.08h55.13v10.74h-3.93c-4,0-5.68.75-5.68,2.25,0,1.25,1.23,2.25,2,3.24h0l15,16.37h0c1.77,1.86,3.95,2.1,6-.23Z" transform="translate(-49.67 -351.82)"/><path class="cls-1" d="M137.71,355.07H151v30H138.72c-1.08-6-4.83-8.33-8.25-11.47-6.17-5.67-19.53-10.39-30.77-10.39-14.5,0-26.74,4.5-26.74,11.12,0,18.36,82.94,3.74,82.94,38.46,0,18.11-17.77,28.22-49.67,28.22-11,0-27.76-3.42-37.62-8.66-3.09-1.79-4.4,1.69-5,6H50v-31H62.33c2.71,7.87,6.46,9.49,9.91,12.61,6,5.5,20.21,9.5,33.27,9.37,19.68-.19,26.44-4.5,26.44-10.74s-6.69-7.74-28.26-11.11h0l-18.31-3h0c-20.66-3.12-35.71-7.74-35.71-24.23,0-17.11,19-27.85,49.13-27.85,12.68,0,23.29,1.7,33.47,7.45,2.83,1.83,5.47,2.05,5.44-4.83Z" transform="translate(-49.67 -351.82)"/><path class="cls-1" d="M397.2,405.25l.26-33.31h0c0-4.37-2.27-5.87-8.77-5.87h-7.63V355.71h48.57v10.36h-6.34c-6.5,0-8.77,1.5-8.77,5.87h0V439l-19-.14L334,380.56v42.33h0c0,4.25,2.27,5.87,8.77,5.87h8.45V439H300.73V428.76h8.36c6.49,0,8.77-1.62,8.77-5.87h0V371.94h0c0-4.37-2.28-5.87-8.77-5.87h-8.36V355.71h43.61l52.86,49.54Z" transform="translate(-49.67 -351.82)"/><path class="cls-1" d="M234.52,351.82c-38.71,0-62.94,17.11-62.94,44.59,0,27,23.89,43.95,61.76,43.95,40.21,0,63.6-16.73,63.6-45.33,0-25.72-25.24-43.21-62.42-43.21Zm-.88,77.68c-21.43,0-33.75-12.36-33.75-33.72,0-20.85,12.86-33.22,34.82-33.22,21.06,0,33.38,12.62,33.38,34.1,0,21-12.5,32.84-34.45,32.84Z" transform="translate(-49.67 -351.82)"/></svg>